<?xml version="1.0" standalone="no"?>
<!DOCTYPE svg PUBLIC "-//W3C//DTD SVG 20010904//EN"
 "http://www.w3.org/TR/2001/REC-SVG-20010904/DTD/svg10.dtd">
<svg version="1.0" xmlns="http://www.w3.org/2000/svg"
 width="700.000000pt" height="700.000000pt" viewBox="0 0 700.000000 700.000000"
 preserveAspectRatio="xMidYMid meet">
<metadata>
Created by potrace 1.14, written by Peter Selinger 2001-2017
</metadata>
<g transform="translate(0.000000,700.000000) scale(0.100000,-0.100000)"
fill="#000000" stroke="none">
<path d="M1705 5655 c-38 -7 -72 -13 -75 -14 -3 -1 -21 -6 -42 -11 -195 -53
-399 -225 -497 -420 -31 -60 -66 -163 -78 -225 -5 -22 -8 -692 -8 -1490 0
-1386 1 -1453 19 -1525 73 -293 306 -532 589 -606 34 -9 71 -18 82 -22 11 -3
809 -6 1774 -7 1799 -2 1818 -1 1946 35 60 18 193 86 250 129 153 116 274 300
311 472 2 13 9 44 14 69 5 26 9 636 9 1460 1 1539 3 1478 -55 1632 -96 256
-344 467 -603 515 -14 2 -29 7 -35 11 -20 13 -3523 10 -3601 -3z m3584 -339
c92 -24 157 -62 231 -136 71 -70 112 -143 134 -239 10 -44 12 -342 11 -1461
l-1 -1405 -22 -63 c-57 -160 -177 -276 -336 -324 l-70 -21 -1736 0 -1736 0
-70 21 c-166 51 -296 183 -345 352 -19 67 -22 2819 -2 2903 21 94 62 166 134
240 78 78 162 123 268 140 50 9 526 12 1772 11 1552 -1 1710 -3 1768 -18z"/>
<path d="M2138 4330 c-102 -18 -162 -126 -124 -224 12 -31 86 -111 299 -323
l283 -283 -282 -282 c-286 -285 -314 -320 -314 -387 0 -59 40 -120 98 -151 33
-16 104 -15 140 4 44 23 733 715 749 753 17 41 17 85 -1 127 -8 19 -160 179
-374 393 -388 387 -388 387 -474 373z"/>
<path d="M3434 2652 c-129 -66 -134 -232 -9 -300 27 -15 91 -17 565 -18 564
-2 574 -1 623 44 75 68 66 194 -19 258 l-37 29 -547 1 c-464 1 -552 -1 -576
-14z"/>
</g>
</svg>
